<svg xmlns="http://www.w3.org/2000/svg" viewBox="0 0 1200 260"><defs><style>.a{fill:#003ed1;}.b{fill:#0076d8;}.c{fill:#003ed0;}</style></defs><rect class="a" x="0.03" y="-0.3" width="1199.95" height="260.61"/><polygon class="b" points="1199.97 260.3 1199.97 0.3 917.92 260.06 1199.97 260.3"/><path class="b" d="M167.26,260.3A153,153,0,0,0,184.31.26H0v260Z"/><path class="c" d="M869.71,208.16a1.14,1.14,0,0,0-1.14,1.13v9a1.14,1.14,0,1,0,2.27,0v-9A1.13,1.13,0,0,0,869.71,208.16Z"/><path class="c" d="M870.84,191.32a1.14,1.14,0,1,0-2.27,0v9a1.14,1.14,0,1,0,2.27,0Z"/><path class="c" d="M870.84,173.34a1.14,1.14,0,1,0-2.27,0v9a1.14,1.14,0,0,0,2.27,0Z"/><path class="c" d="M870.84,137.39a1.14,1.14,0,1,0-2.27,0v9a1.14,1.14,0,0,0,2.27,0Z"/><path class="c" d="M870.84,155.36a1.14,1.14,0,0,0-2.27,0v9a1.14,1.14,0,1,0,2.27,0Z"/><path class="c" d="M869.71,237.39a1.13,1.13,0,0,0,1.13-1.13v-9a1.14,1.14,0,1,0-2.27,0v9A1.14,1.14,0,0,0,869.71,237.39Z"/><path class="c" d="M1010,231.8H998.82a2.53,2.53,0,0,0-2.52,2.52v4.45H872.45l59.65-59.66v9.53a1.14,1.14,0,1,0,2.27,0v-9.89a3.26,3.26,0,0,0-3.26-3.26h-9.89a1.14,1.14,0,1,0,0,2.27h9L868.91,239.1a1.12,1.12,0,0,0-.25,1.24,1.15,1.15,0,0,0,1.05.7H996.3v4.44a2.53,2.53,0,0,0,2.52,2.52H1010a2.52,2.52,0,0,0,2.52-2.52V234.32A2.52,2.52,0,0,0,1010,231.8Zm.77,13.68a.78.78,0,0,1-.77.77H998.82a.77.77,0,0,1-.76-.77V234.32a.76.76,0,0,1,.76-.76H1010a.77.77,0,0,1,.77.76Z"/><path class="c" d="M875.79,128.4v-5.63a3.27,3.27,0,0,0-3.27-3.26h-5.63a3.26,3.26,0,0,0-3.26,3.26v5.63a3.27,3.27,0,0,0,3.26,3.27h5.63A3.28,3.28,0,0,0,875.79,128.4Zm-9.89,0v-5.63a1,1,0,0,1,1-1h5.63a1,1,0,0,1,1,1v5.63a1,1,0,0,1-1,1h-5.63A1,1,0,0,1,865.9,128.4Z"/><path class="b" d="M869.71,208.16a1.14,1.14,0,0,0-1.14,1.13v9a1.14,1.14,0,1,0,2.27,0v-9A1.13,1.13,0,0,0,869.71,208.16Z"/><path class="b" d="M870.84,191.32a1.14,1.14,0,1,0-2.27,0v9a1.14,1.14,0,1,0,2.27,0Z"/><path class="b" d="M870.84,173.34a1.14,1.14,0,1,0-2.27,0v9a1.14,1.14,0,0,0,2.27,0Z"/><path class="b" d="M870.84,137.39a1.14,1.14,0,1,0-2.27,0v9a1.14,1.14,0,0,0,2.27,0Z"/><path class="b" d="M870.84,155.36a1.14,1.14,0,0,0-2.27,0v9a1.14,1.14,0,1,0,2.27,0Z"/><path class="b" d="M869.71,237.39a1.13,1.13,0,0,0,1.13-1.13v-9a1.14,1.14,0,1,0-2.27,0v9A1.14,1.14,0,0,0,869.71,237.39Z"/><path class="b" d="M941,238.77H872.45l59.65-59.66v9.53a1.14,1.14,0,1,0,2.27,0v-9.89a3.26,3.26,0,0,0-3.26-3.26h-9.89a1.14,1.14,0,1,0,0,2.27h9L868.91,239.1a1.12,1.12,0,0,0-.25,1.24,1.15,1.15,0,0,0,1.05.7h68.87Z"/><path class="b" d="M875.79,128.4v-5.63a3.27,3.27,0,0,0-3.27-3.26h-5.63a3.26,3.26,0,0,0-3.26,3.26v5.63a3.27,3.27,0,0,0,3.26,3.27h5.63A3.28,3.28,0,0,0,875.79,128.4Zm-9.89,0v-5.63a1,1,0,0,1,1-1h5.63a1,1,0,0,1,1,1v5.63a1,1,0,0,1-1,1h-5.63A1,1,0,0,1,865.9,128.4Z"/><path class="a" d="M1087,207.87l21.41,52.75h2.69l-19.6-48.32a20,20,0,0,0,7.42,2.25,29.46,29.46,0,0,0,3.55.2c11.8,0,26-6.3,33.07-15.07a19.88,19.88,0,0,0,3.77-6.85l27.53,67.79h2.7L1139.26,186h0l-.12-.34c-1.68-4.14-6.07-6.84-12.35-7.58-12.35-1.48-28.79,5.19-36.62,14.87-4,4.91-5.24,9.9-3.56,14C1086.74,207.27,1086.89,207.57,1087,207.87Zm5.08-13.38c7.35-9.08,22.77-15.35,34.38-14,5.33.63,9,2.78,10.32,6s.19,7.36-3.18,11.54c-7.36,9.08-22.78,15.35-34.39,14-5-.6-8.53-2.55-10-5.5l-.56-1.36C1087.81,202.09,1089,198.32,1092.12,194.49Z"/><path class="b" d="M308.87,10.37a34.68,34.68,0,0,0-23.68,9.34L271.76,6.28a9.58,9.58,0,0,0,2-5.84h-2.5a7.11,7.11,0,0,1-7.1,7.11A7.12,7.12,0,0,1,257,.44h-2.5a9.62,9.62,0,0,0,9.61,9.61,9.52,9.52,0,0,0,5.84-2l13.43,13.43a34.77,34.77,0,1,0,25.45-11.11Zm0,67.09a32.3,32.3,0,1,1,32.3-32.29A32.33,32.33,0,0,1,308.87,77.46Z"/><path class="b" d="M322.65,44H310.12V31.51a1.25,1.25,0,1,0-2.5,0V44H295.1a1.25,1.25,0,0,0,0,2.5h12.52V59.07a1.25,1.25,0,0,0,2.5,0V46.54h12.53a1.25,1.25,0,0,0,0-2.5Z"/><path class="b" d="M1134.77,22.11a1.27,1.27,0,0,1-.93-.41l-7.38-8.16a1.25,1.25,0,1,1,1.86-1.68l7.37,8.16a1.25,1.25,0,0,1-.92,2.09Z"/><path class="b" d="M1110,44.52a1.27,1.27,0,0,1-.93-.41L1101.67,36a1.25,1.25,0,0,1,.09-1.76,1.23,1.23,0,0,1,1.76.09l7.38,8.15a1.26,1.26,0,0,1-.09,1.77A1.23,1.23,0,0,1,1110,44.52Z"/><path class="b" d="M1085.17,66.94a1.21,1.21,0,0,1-.92-.42l-7.38-8.16a1.25,1.25,0,0,1,.09-1.76,1.26,1.26,0,0,1,1.77.09l7.37,8.16a1.26,1.26,0,0,1-.93,2.09Z"/><path class="b" d="M1060.38,89.35a1.27,1.27,0,0,1-.93-.41l-7.38-8.16a1.25,1.25,0,0,1,1.86-1.68l7.38,8.16a1.26,1.26,0,0,1-.09,1.77A1.28,1.28,0,0,1,1060.38,89.35Z"/><path class="b" d="M1035.58,111.76a1.27,1.27,0,0,1-.93-.41l-7.37-8.16a1.26,1.26,0,0,1,.09-1.77,1.25,1.25,0,0,1,1.76.09l7.38,8.16a1.26,1.26,0,0,1-.09,1.77A1.23,1.23,0,0,1,1035.58,111.76Z"/><path class="b" d="M963.25,32.91a1.23,1.23,0,0,1-.92-.41L955,24.34a1.25,1.25,0,1,1,1.86-1.68l7.37,8.16a1.26,1.26,0,0,1-.09,1.77A1.28,1.28,0,0,1,963.25,32.91Z"/><path class="b" d="M987.05,11.5a1.24,1.24,0,0,1-.93-.42l-7.37-8.16a1.25,1.25,0,0,1,1.85-1.67L988,9.41a1.26,1.26,0,0,1-.93,2.09Z"/><path class="b" d="M1124.76-.3l-107,96.74a4.86,4.86,0,0,1-6.77-.27L967.48,49.86a4.86,4.86,0,0,1-1.3-3.51A4.77,4.77,0,0,1,967.77,43L1015.63-.3h-3.73L966.09,41.1a7.35,7.35,0,0,0-.43,10.47l43.48,46.31a7.36,7.36,0,0,0,10.26.42L1128.49-.3Z"/><path class="a" d="M148.61,25.4a16.74,16.74,0,0,0-16.72,16.72v63.13a7.91,7.91,0,1,1-15.81,0V42.12a16.72,16.72,0,1,0-33.44,0v63.13a7.91,7.91,0,1,1-15.81,0V42.12a16.72,16.72,0,1,0-33.44,0v63.13a7.9,7.9,0,1,1-15.8,0V.53a1.18,1.18,0,0,0-.06-.27H15.14a1.17,1.17,0,0,0-.05.27V105.25a10.4,10.4,0,1,0,20.8,0V42.12a14.22,14.22,0,1,1,28.44,0v63.13a10.41,10.41,0,1,0,20.81,0V42.12a14.22,14.22,0,1,1,28.44,0v63.13a10.41,10.41,0,1,0,20.81,0V42.12a14.22,14.22,0,1,1,28.44,0v35a1.25,1.25,0,0,0,2.5,0v-35A16.74,16.74,0,0,0,148.61,25.4Z"/><path class="c" d="M32.15,260.3l58.93-57.09V260.3h2.5l0-58.79h247l-60.65,58.76s0,0,0,0h3.59L341.52,204V260.3h3.36l0-60a1.23,1.23,0,0,0-1.67-1.16,1.17,1.17,0,0,0-.42-.09H92.35l-.06,0a1.2,1.2,0,0,0-.42.08h0a1.38,1.38,0,0,0-.42.25L28.59,260.27s0,0,0,0Z"/><path class="b" d="M344.88,260.3l0-60a1.23,1.23,0,0,0-1.67-1.16,1.17,1.17,0,0,0-.42-.09H230.22c-.46.84-.93,1.67-1.41,2.5H340.52l-60.65,58.76s0,0,0,0h3.59L341.52,204V260.3Z"/></svg>